<svg viewBox="0 0 512 512" xmlns="http://www.w3.org/2000/svg"><g id="Layer_2" data-name="Layer 2"><g id="_02.pen_nib" data-name="02.pen_nib"><path d="m256 0c-141.38 0-256 114.62-256 256s114.62 256 256 256 256-114.62 256-256-114.62-256-256-256zm86.86 245.06c-8.1 26-15.89 52.1-24 78.09-3.59 11.48-11.26 19.5-22.7 23.34q-72.58 24.39-145.24 48.51c-5.08 1.69-9.91 1.45-15.45-2.6l81.05-81.05a30.17 30.17 0 1 0 -15.79-15.8l-81 81c-4.12-4.53-4.44-9.73-2.66-15.1q24.27-73.21 48.84-146.32c3.85-11.38 12.28-18.64 23.83-22.18 25.52-7.81 51.06-15.58 76.54-23.53 4.66-1.45 7.95-1.12 11.72 2.73q30.56 31.28 61.8 61.87c3.41 3.39 4.5 6.43 3.06 11.04zm44.2-51.28-30.29 30.28-68.77-68.79 30.27-30.27a30.52 30.52 0 0 1 43.18 0l25.61 25.6a30.55 30.55 0 0 1 0 43.18z"/></g></g></svg>