<?xml version="1.0" encoding="iso-8859-1"?>
<!-- Generator: Adobe Illustrator 19.0.0, SVG Export Plug-In . SVG Version: 6.00 Build 0)  -->
<svg version="1.1" id="Layer_1" xmlns="http://www.w3.org/2000/svg" xmlns:xlink="http://www.w3.org/1999/xlink" x="0px" y="0px"
	 viewBox="0 0 512 512" style="enable-background:new 0 0 512 512;" xml:space="preserve">
<g>
	<g>
		<path d="M448.878,29.488H221.382c-6.861,0-12.424,5.563-12.424,12.424v67.192c15.23,6.493,28.041,18.305,35.473,33.606
			l18.631,38.359l61.901-4.012c18.491-1.2,34.98,10.384,40.61,27.306c1.312,0.555,2.599,1.151,3.853,1.794v-22.961h79.452
			c6.861,0,12.424-5.563,12.424-12.424V41.912C461.302,35.051,455.74,29.488,448.878,29.488z M348.214,113.052
			c0.58-3.07-0.315-6.365-2.691-8.742c-3.819-3.819-10.011-3.819-13.83,0c-3.819,3.819-3.819,10.01,0,13.83
			c2.377,2.377,5.672,3.272,8.743,2.691l27.618,27.618l-51.272-21.621c-1.769-0.746-2.918-2.478-2.918-4.398v-4.938
			c0-7.322-2.909-14.345-8.087-19.524l-12.798-12.798c-1.056-1.056-1.056-2.769,0-3.825l15.75-15.75
			c1.056-1.056,2.769-1.056,3.825,0l12.798,12.798c5.178,5.178,12.201,8.087,19.524,8.087h4.938c1.919,0,3.651,1.15,4.397,2.918
			l21.62,51.269L348.214,113.052z"/>
	</g>
</g>
<g>
	<g>
		<path d="M135.081,17.425c-23.875,0-43.23,19.354-43.23,43.23c0,24.008,19.517,43.23,43.23,43.23
			c23.709,0,43.23-19.222,43.23-43.23C178.311,36.779,158.956,17.425,135.081,17.425z"/>
	</g>
</g>
<g>
	<g>
		<path d="M258.386,304.71h-41.551c10.439,4.184,17.834,14.399,17.834,26.315v25.652c0,7.74-3.121,14.762-8.168,19.882
			l-12.628,89.484c-1.931,13.688,7.6,26.35,21.287,28.282c13.719,1.93,26.354-7.624,28.282-21.287l19.727-139.802
			C285.296,318.169,273.578,304.71,258.386,304.71z"/>
	</g>
</g>
<g>
	<g>
		<path d="M206.325,319.39c-37.04,0-38.244,0-54.679,0V189.663c0-15.102-12.242-27.343-27.343-27.343H27.343
			C12.242,162.319,0,174.561,0,189.663v151.308c0,15.102,12.242,27.343,27.343,27.343c7.123,0,57.826,0,65.21,0
			c0,7.653,0,53.653,0,61.271l-73.781,41.94c-5.92,3.365-7.991,10.891-4.626,16.811c3.366,5.919,10.891,7.993,16.813,4.626
			l64.678-36.765v9.52c0,6.809,5.52,12.329,12.329,12.329s12.329-5.52,12.329-12.329v-9.52l33.666,19.137
			c2.613,11.032,12.52,19.242,24.35,19.242c13.824,0,25.03-11.206,25.03-25.03v-84.523h-50.06v61.561l-29.904-16.998
			c0-7.617,0-53.619,0-61.271c30.068,0,10.186,0,82.948,0c6.426,0,11.635-5.21,11.635-11.635v-25.652
			C217.961,324.613,212.749,319.39,206.325,319.39z"/>
	</g>
</g>
<g>
	<g>
		<path d="M495.292,248.767c-17.563,0-102.71,0-118.252,0c0.437-1.718,0.656-3.438,0.656-5.156c0-13.473-12.855-24.363-29.31-26.847
			c-0.167-12.163-10.442-21.302-22.179-20.535l-74.786,4.847l-24.272-49.973c-8.371-17.232-26.156-28.368-45.315-28.368
			c-94.216,0-98.349,0-102.568,0c-17.425,0-32.794,9.129-41.583,22.875h86.62c24.293,0,44.051,19.765,44.051,44.051v113.02h22.482
			v-20.499c5.688,0,256.564,0,259.712,0v196.981c0,8.512,6.9,15.411,15.412,15.411c8.512,0,15.412-6.9,15.412-15.411V282.183h13.92
			c9.227,0,16.708-7.481,16.708-16.708S504.519,248.767,495.292,248.767z M190.836,248.767c0-10.402,0-64.989,0-76.943
			l29.184,60.087c3.691,7.6,11.623,12.251,20.112,11.701l64.837-4.203c-0.629,3.06-0.577,6.196,0.227,9.357
			C290.411,248.767,206.924,248.767,190.836,248.767z"/>
	</g>
</g>
<g>
</g>
<g>
</g>
<g>
</g>
<g>
</g>
<g>
</g>
<g>
</g>
<g>
</g>
<g>
</g>
<g>
</g>
<g>
</g>
<g>
</g>
<g>
</g>
<g>
</g>
<g>
</g>
<g>
</g>
</svg>
