<svg height="512" viewBox="0 0 48 48" width="512" xmlns="http://www.w3.org/2000/svg"><g id="hand_receive_package" data-name="hand receive package"><path d="m1 22h6v17h-6z"/><path d="m46.67 28.63a3 3 0 0 0 -4-1.3l-11.27 5.74c-1.43 2.23-3.76 3.67-6.11 2.54l-7.89-3.71a1 1 0 0 1 .86-1.8c8.59 4 8.07 3.88 8.74 3.9 2.37.11 3.87-3.57 1.28-4.72-14.12-6.63-12.12-6.42-19.28-5.53v13.25a6.63 6.63 0 0 1 3.18.54c14.56 6.61 10.46 6.75 33.19-4.87a3 3 0 0 0 1.3-4.04z"/><path d="m29 9c.31 0 .2 0 3 1.38v-4.38h-6v4.38c2.81-1.38 2.69-1.38 3-1.38z"/><path d="m29.13 27.47a5 5 0 0 1 2.68 3.15c11.02-5.62 10.31-5.35 11.19-5.51v-19.11h-9c0 6.49.16 6.46-.47 6.85s-.74.15-4.53-1.73l-3.55 1.77a1 1 0 0 1 -1.45-.89v-6h-9v15.42c2.53.36 3.17.9 14.13 6.05zm5.87-5.47h4a1 1 0 0 1 0 2h-4a1 1 0 0 1 0-2z"/></g></svg>