<svg id="Layer_1" viewBox="0 0 64 64" xmlns="http://www.w3.org/2000/svg" data-name="Layer 1"><path d="m4 43.388c0 1.938 1.576 3.514 3.514 3.514h48.973c1.938 0 3.514-1.577 3.514-3.514v-1.618h-56.001z"/><path d="m34.584 48.902h-5.168l-5.913 7.234h16.994z"/><path d="m56.486 7.864h-48.972c-1.938 0-3.514 1.577-3.514 3.514v28.392h56v-28.392c0-1.938-1.576-3.514-3.514-3.514zm-30.396 21.073c.43.346.498.976.152 1.406-.197.246-.487.374-.78.374-.22 0-.441-.072-.626-.221l-7.016-5.642c-.235-.19-.373-.477-.373-.779s.138-.589.373-.779l7.016-5.642c.431-.346 1.061-.278 1.406.153.346.43.277 1.06-.152 1.406l-6.047 4.862zm5.03 5.622c-.088.483-.509.822-.983.822-.059 0-.119-.005-.179-.016-.544-.098-.904-.618-.807-1.162l3.727-20.613c.099-.543.618-.908 1.162-.806.544.098.904.618.807 1.162zm15.058-9.705-7.016 5.642c-.185.148-.406.221-.626.221-.293 0-.583-.127-.78-.374-.346-.43-.277-1.06.152-1.406l6.047-4.862-6.047-4.862c-.43-.346-.498-.976-.152-1.406.346-.429.977-.498 1.406-.153l7.016 5.642c.235.19.373.477.373.779s-.138.589-.373.779z"/></svg>